<mxfile host="app.diagrams.net" agent="Mozilla/5.0 (X11; Linux x86_64) AppleWebKit/537.36 (KHTML, like Gecko) Chrome/135.0.0.0 Safari/537.36" version="26.2.14">
  <diagram name="Page-1" id="pUmrEvRPcxrxD352P9Xs">
    <mxGraphModel dx="2272" dy="651" grid="1" gridSize="10" guides="1" tooltips="1" connect="1" arrows="1" fold="1" page="1" pageScale="1" pageWidth="1169" pageHeight="827" math="0" shadow="0">
      <root>
        <mxCell id="0" />
        <mxCell id="1" parent="0" />
        <mxCell id="L1TldIx-KPI5O_lMJ1-w-1" value="&lt;span style=&quot;font-weight: normal;&quot;&gt;&amp;lt;Interface&amp;gt;&lt;/span&gt;&lt;br&gt;ImageFilter" style="swimlane;fontStyle=1;align=center;verticalAlign=top;childLayout=stackLayout;horizontal=1;startSize=40;horizontalStack=0;resizeParent=1;resizeParentMax=0;resizeLast=0;collapsible=1;marginBottom=0;whiteSpace=wrap;html=1;" vertex="1" parent="1">
          <mxGeometry x="80" y="80" width="280" height="74" as="geometry" />
        </mxCell>
        <mxCell id="L1TldIx-KPI5O_lMJ1-w-3" value="" style="line;strokeWidth=1;fillColor=none;align=left;verticalAlign=middle;spacingTop=-1;spacingLeft=3;spacingRight=3;rotatable=0;labelPosition=right;points=[];portConstraint=eastwest;strokeColor=inherit;" vertex="1" parent="L1TldIx-KPI5O_lMJ1-w-1">
          <mxGeometry y="40" width="280" height="8" as="geometry" />
        </mxCell>
        <mxCell id="L1TldIx-KPI5O_lMJ1-w-4" value="&lt;i&gt;+ filter(BufferedImage image): BufferedImage&lt;/i&gt;" style="text;strokeColor=none;fillColor=none;align=left;verticalAlign=top;spacingLeft=4;spacingRight=4;overflow=hidden;rotatable=0;points=[[0,0.5],[1,0.5]];portConstraint=eastwest;whiteSpace=wrap;html=1;" vertex="1" parent="L1TldIx-KPI5O_lMJ1-w-1">
          <mxGeometry y="48" width="280" height="26" as="geometry" />
        </mxCell>
        <mxCell id="L1TldIx-KPI5O_lMJ1-w-5" value="&lt;i&gt;AbstractFilter&lt;/i&gt;" style="swimlane;fontStyle=1;align=center;verticalAlign=top;childLayout=stackLayout;horizontal=1;startSize=30;horizontalStack=0;resizeParent=1;resizeParentMax=0;resizeLast=0;collapsible=1;marginBottom=0;whiteSpace=wrap;html=1;" vertex="1" parent="1">
          <mxGeometry x="-80" y="210" width="280" height="64" as="geometry" />
        </mxCell>
        <mxCell id="L1TldIx-KPI5O_lMJ1-w-6" value="" style="line;strokeWidth=1;fillColor=none;align=left;verticalAlign=middle;spacingTop=-1;spacingLeft=3;spacingRight=3;rotatable=0;labelPosition=right;points=[];portConstraint=eastwest;strokeColor=inherit;" vertex="1" parent="L1TldIx-KPI5O_lMJ1-w-5">
          <mxGeometry y="30" width="280" height="8" as="geometry" />
        </mxCell>
        <mxCell id="L1TldIx-KPI5O_lMJ1-w-7" value="&lt;i&gt;+ filter(BufferedImage image): BufferedImage&lt;/i&gt;" style="text;strokeColor=none;fillColor=none;align=left;verticalAlign=top;spacingLeft=4;spacingRight=4;overflow=hidden;rotatable=0;points=[[0,0.5],[1,0.5]];portConstraint=eastwest;whiteSpace=wrap;html=1;" vertex="1" parent="L1TldIx-KPI5O_lMJ1-w-5">
          <mxGeometry y="38" width="280" height="26" as="geometry" />
        </mxCell>
        <mxCell id="L1TldIx-KPI5O_lMJ1-w-8" value="Extends" style="endArrow=block;endSize=16;endFill=0;html=1;rounded=0;" edge="1" parent="1" source="L1TldIx-KPI5O_lMJ1-w-5" target="L1TldIx-KPI5O_lMJ1-w-1">
          <mxGeometry width="160" relative="1" as="geometry">
            <mxPoint x="10" y="290" as="sourcePoint" />
            <mxPoint x="170" y="290" as="targetPoint" />
          </mxGeometry>
        </mxCell>
        <mxCell id="L1TldIx-KPI5O_lMJ1-w-9" value="Artifacter" style="swimlane;fontStyle=1;align=center;verticalAlign=top;childLayout=stackLayout;horizontal=1;startSize=30;horizontalStack=0;resizeParent=1;resizeParentMax=0;resizeLast=0;collapsible=1;marginBottom=0;whiteSpace=wrap;html=1;" vertex="1" parent="1">
          <mxGeometry x="-30" y="360" width="180" height="80" as="geometry" />
        </mxCell>
        <mxCell id="L1TldIx-KPI5O_lMJ1-w-10" value="" style="line;strokeWidth=1;fillColor=none;align=left;verticalAlign=middle;spacingTop=-1;spacingLeft=3;spacingRight=3;rotatable=0;labelPosition=right;points=[];portConstraint=eastwest;strokeColor=inherit;" vertex="1" parent="L1TldIx-KPI5O_lMJ1-w-9">
          <mxGeometry y="30" width="180" height="8" as="geometry" />
        </mxCell>
        <mxCell id="L1TldIx-KPI5O_lMJ1-w-11" value="&lt;span&gt;+ filter(BufferedImage image): BufferedImage&lt;/span&gt;" style="text;strokeColor=none;fillColor=none;align=left;verticalAlign=top;spacingLeft=4;spacingRight=4;overflow=hidden;rotatable=0;points=[[0,0.5],[1,0.5]];portConstraint=eastwest;whiteSpace=wrap;html=1;fontStyle=0" vertex="1" parent="L1TldIx-KPI5O_lMJ1-w-9">
          <mxGeometry y="38" width="180" height="42" as="geometry" />
        </mxCell>
        <mxCell id="L1TldIx-KPI5O_lMJ1-w-13" value="Extends" style="endArrow=block;endSize=16;endFill=0;html=1;rounded=0;" edge="1" parent="1" source="L1TldIx-KPI5O_lMJ1-w-9" target="L1TldIx-KPI5O_lMJ1-w-5">
          <mxGeometry width="160" relative="1" as="geometry">
            <mxPoint x="300" y="340" as="sourcePoint" />
            <mxPoint x="460" y="340" as="targetPoint" />
          </mxGeometry>
        </mxCell>
        <mxCell id="L1TldIx-KPI5O_lMJ1-w-14" value="&lt;span style=&quot;font-weight: normal;&quot;&gt;&amp;lt;Interface&amp;gt;&lt;/span&gt;&lt;br&gt;ImageFilterPipeInterface" style="swimlane;fontStyle=1;align=center;verticalAlign=top;childLayout=stackLayout;horizontal=1;startSize=40;horizontalStack=0;resizeParent=1;resizeParentMax=0;resizeLast=0;collapsible=1;marginBottom=0;whiteSpace=wrap;html=1;" vertex="1" parent="1">
          <mxGeometry x="650" y="80" width="280" height="160" as="geometry" />
        </mxCell>
        <mxCell id="L1TldIx-KPI5O_lMJ1-w-15" value="" style="line;strokeWidth=1;fillColor=none;align=left;verticalAlign=middle;spacingTop=-1;spacingLeft=3;spacingRight=3;rotatable=0;labelPosition=right;points=[];portConstraint=eastwest;strokeColor=inherit;" vertex="1" parent="L1TldIx-KPI5O_lMJ1-w-14">
          <mxGeometry y="40" width="280" height="8" as="geometry" />
        </mxCell>
        <mxCell id="L1TldIx-KPI5O_lMJ1-w-16" value="&lt;i&gt;+ filter(BufferedImage image): BufferedImage&lt;/i&gt;" style="text;strokeColor=none;fillColor=none;align=left;verticalAlign=top;spacingLeft=4;spacingRight=4;overflow=hidden;rotatable=0;points=[[0,0.5],[1,0.5]];portConstraint=eastwest;whiteSpace=wrap;html=1;" vertex="1" parent="L1TldIx-KPI5O_lMJ1-w-14">
          <mxGeometry y="48" width="280" height="26" as="geometry" />
        </mxCell>
        <mxCell id="L1TldIx-KPI5O_lMJ1-w-17" value="&lt;i&gt;+ addFilter(ImageFilter image)&lt;/i&gt;" style="text;strokeColor=none;fillColor=none;align=left;verticalAlign=top;spacingLeft=4;spacingRight=4;overflow=hidden;rotatable=0;points=[[0,0.5],[1,0.5]];portConstraint=eastwest;whiteSpace=wrap;html=1;" vertex="1" parent="L1TldIx-KPI5O_lMJ1-w-14">
          <mxGeometry y="74" width="280" height="26" as="geometry" />
        </mxCell>
        <mxCell id="L1TldIx-KPI5O_lMJ1-w-18" value="&lt;i&gt;+ setNextPipe(ImageFilterPipe newPipe)&lt;/i&gt;" style="text;strokeColor=none;fillColor=none;align=left;verticalAlign=top;spacingLeft=4;spacingRight=4;overflow=hidden;rotatable=0;points=[[0,0.5],[1,0.5]];portConstraint=eastwest;whiteSpace=wrap;html=1;" vertex="1" parent="L1TldIx-KPI5O_lMJ1-w-14">
          <mxGeometry y="100" width="280" height="26" as="geometry" />
        </mxCell>
        <mxCell id="L1TldIx-KPI5O_lMJ1-w-19" value="&lt;i&gt;+ addPipeFrom(&lt;/i&gt;&lt;i&gt;ImageFilterPipe newPipe,&amp;nbsp;&lt;/i&gt;&lt;i&gt;ImageFilterPipe aPipe&lt;/i&gt;&lt;i&gt;)&lt;/i&gt;" style="text;strokeColor=none;fillColor=none;align=left;verticalAlign=top;spacingLeft=4;spacingRight=4;overflow=hidden;rotatable=0;points=[[0,0.5],[1,0.5]];portConstraint=eastwest;whiteSpace=wrap;html=1;" vertex="1" parent="L1TldIx-KPI5O_lMJ1-w-14">
          <mxGeometry y="126" width="280" height="34" as="geometry" />
        </mxCell>
        <mxCell id="L1TldIx-KPI5O_lMJ1-w-20" value="ImageFilterPipe" style="swimlane;fontStyle=1;align=center;verticalAlign=top;childLayout=stackLayout;horizontal=1;startSize=30;horizontalStack=0;resizeParent=1;resizeParentMax=0;resizeLast=0;collapsible=1;marginBottom=0;whiteSpace=wrap;html=1;" vertex="1" parent="1">
          <mxGeometry x="650" y="460" width="280" height="150" as="geometry" />
        </mxCell>
        <mxCell id="L1TldIx-KPI5O_lMJ1-w-21" value="" style="line;strokeWidth=1;fillColor=none;align=left;verticalAlign=middle;spacingTop=-1;spacingLeft=3;spacingRight=3;rotatable=0;labelPosition=right;points=[];portConstraint=eastwest;strokeColor=inherit;" vertex="1" parent="L1TldIx-KPI5O_lMJ1-w-20">
          <mxGeometry y="30" width="280" height="8" as="geometry" />
        </mxCell>
        <mxCell id="L1TldIx-KPI5O_lMJ1-w-22" value="&lt;i&gt;+ filter(BufferedImage image): BufferedImage&lt;/i&gt;" style="text;strokeColor=none;fillColor=none;align=left;verticalAlign=top;spacingLeft=4;spacingRight=4;overflow=hidden;rotatable=0;points=[[0,0.5],[1,0.5]];portConstraint=eastwest;whiteSpace=wrap;html=1;" vertex="1" parent="L1TldIx-KPI5O_lMJ1-w-20">
          <mxGeometry y="38" width="280" height="26" as="geometry" />
        </mxCell>
        <mxCell id="L1TldIx-KPI5O_lMJ1-w-23" value="&lt;i&gt;+ addFilter(ImageFilter image)&lt;/i&gt;" style="text;strokeColor=none;fillColor=none;align=left;verticalAlign=top;spacingLeft=4;spacingRight=4;overflow=hidden;rotatable=0;points=[[0,0.5],[1,0.5]];portConstraint=eastwest;whiteSpace=wrap;html=1;" vertex="1" parent="L1TldIx-KPI5O_lMJ1-w-20">
          <mxGeometry y="64" width="280" height="26" as="geometry" />
        </mxCell>
        <mxCell id="L1TldIx-KPI5O_lMJ1-w-24" value="&lt;i&gt;+ setNextPipe(ImageFilterPipe newPipe)&lt;/i&gt;" style="text;strokeColor=none;fillColor=none;align=left;verticalAlign=top;spacingLeft=4;spacingRight=4;overflow=hidden;rotatable=0;points=[[0,0.5],[1,0.5]];portConstraint=eastwest;whiteSpace=wrap;html=1;" vertex="1" parent="L1TldIx-KPI5O_lMJ1-w-20">
          <mxGeometry y="90" width="280" height="26" as="geometry" />
        </mxCell>
        <mxCell id="L1TldIx-KPI5O_lMJ1-w-25" value="&lt;i&gt;+ addPipeFrom(&lt;/i&gt;&lt;i&gt;ImageFilterPipe newPipe,&amp;nbsp;&lt;/i&gt;&lt;i&gt;ImageFilterPipe aPipe&lt;/i&gt;&lt;i&gt;)&lt;/i&gt;" style="text;strokeColor=none;fillColor=none;align=left;verticalAlign=top;spacingLeft=4;spacingRight=4;overflow=hidden;rotatable=0;points=[[0,0.5],[1,0.5]];portConstraint=eastwest;whiteSpace=wrap;html=1;" vertex="1" parent="L1TldIx-KPI5O_lMJ1-w-20">
          <mxGeometry y="116" width="280" height="34" as="geometry" />
        </mxCell>
        <mxCell id="L1TldIx-KPI5O_lMJ1-w-26" value="Extends" style="endArrow=block;endSize=16;endFill=0;html=1;rounded=0;" edge="1" parent="1" source="L1TldIx-KPI5O_lMJ1-w-20" target="L1TldIx-KPI5O_lMJ1-w-14">
          <mxGeometry width="160" relative="1" as="geometry">
            <mxPoint x="300" y="340" as="sourcePoint" />
            <mxPoint x="460" y="340" as="targetPoint" />
          </mxGeometry>
        </mxCell>
        <mxCell id="L1TldIx-KPI5O_lMJ1-w-27" value="Extends" style="endArrow=block;endSize=16;endFill=0;html=1;rounded=0;" edge="1" parent="1" source="L1TldIx-KPI5O_lMJ1-w-20" target="L1TldIx-KPI5O_lMJ1-w-1">
          <mxGeometry width="160" relative="1" as="geometry">
            <mxPoint x="300" y="340" as="sourcePoint" />
            <mxPoint x="460" y="340" as="targetPoint" />
          </mxGeometry>
        </mxCell>
        <mxCell id="L1TldIx-KPI5O_lMJ1-w-28" value="ImageFilterPipe" style="swimlane;fontStyle=1;align=center;verticalAlign=top;childLayout=stackLayout;horizontal=1;startSize=30;horizontalStack=0;resizeParent=1;resizeParentMax=0;resizeLast=0;collapsible=1;marginBottom=0;whiteSpace=wrap;html=1;" vertex="1" parent="1">
          <mxGeometry x="190" y="460" width="280" height="150" as="geometry" />
        </mxCell>
        <mxCell id="L1TldIx-KPI5O_lMJ1-w-29" value="" style="line;strokeWidth=1;fillColor=none;align=left;verticalAlign=middle;spacingTop=-1;spacingLeft=3;spacingRight=3;rotatable=0;labelPosition=right;points=[];portConstraint=eastwest;strokeColor=inherit;" vertex="1" parent="L1TldIx-KPI5O_lMJ1-w-28">
          <mxGeometry y="30" width="280" height="8" as="geometry" />
        </mxCell>
        <mxCell id="L1TldIx-KPI5O_lMJ1-w-30" value="&lt;i&gt;+ filter(BufferedImage image): BufferedImage&lt;/i&gt;" style="text;strokeColor=none;fillColor=none;align=left;verticalAlign=top;spacingLeft=4;spacingRight=4;overflow=hidden;rotatable=0;points=[[0,0.5],[1,0.5]];portConstraint=eastwest;whiteSpace=wrap;html=1;" vertex="1" parent="L1TldIx-KPI5O_lMJ1-w-28">
          <mxGeometry y="38" width="280" height="26" as="geometry" />
        </mxCell>
        <mxCell id="L1TldIx-KPI5O_lMJ1-w-31" value="&lt;i&gt;+ addFilter(ImageFilter image)&lt;/i&gt;" style="text;strokeColor=none;fillColor=none;align=left;verticalAlign=top;spacingLeft=4;spacingRight=4;overflow=hidden;rotatable=0;points=[[0,0.5],[1,0.5]];portConstraint=eastwest;whiteSpace=wrap;html=1;" vertex="1" parent="L1TldIx-KPI5O_lMJ1-w-28">
          <mxGeometry y="64" width="280" height="26" as="geometry" />
        </mxCell>
        <mxCell id="L1TldIx-KPI5O_lMJ1-w-32" value="&lt;i&gt;+ setNextPipe(ImageFilterPipe newPipe)&lt;/i&gt;" style="text;strokeColor=none;fillColor=none;align=left;verticalAlign=top;spacingLeft=4;spacingRight=4;overflow=hidden;rotatable=0;points=[[0,0.5],[1,0.5]];portConstraint=eastwest;whiteSpace=wrap;html=1;" vertex="1" parent="L1TldIx-KPI5O_lMJ1-w-28">
          <mxGeometry y="90" width="280" height="26" as="geometry" />
        </mxCell>
        <mxCell id="L1TldIx-KPI5O_lMJ1-w-33" value="&lt;i&gt;+ addPipeFrom(&lt;/i&gt;&lt;i&gt;ImageFilterPipe newPipe,&amp;nbsp;&lt;/i&gt;&lt;i&gt;ImageFilterPipe aPipe&lt;/i&gt;&lt;i&gt;)&lt;/i&gt;" style="text;strokeColor=none;fillColor=none;align=left;verticalAlign=top;spacingLeft=4;spacingRight=4;overflow=hidden;rotatable=0;points=[[0,0.5],[1,0.5]];portConstraint=eastwest;whiteSpace=wrap;html=1;" vertex="1" parent="L1TldIx-KPI5O_lMJ1-w-28">
          <mxGeometry y="116" width="280" height="34" as="geometry" />
        </mxCell>
        <mxCell id="L1TldIx-KPI5O_lMJ1-w-34" value="Extends" style="endArrow=block;endSize=16;endFill=0;html=1;rounded=0;" edge="1" parent="1" source="L1TldIx-KPI5O_lMJ1-w-28" target="L1TldIx-KPI5O_lMJ1-w-14">
          <mxGeometry width="160" relative="1" as="geometry">
            <mxPoint x="300" y="340" as="sourcePoint" />
            <mxPoint x="460" y="340" as="targetPoint" />
          </mxGeometry>
        </mxCell>
        <mxCell id="L1TldIx-KPI5O_lMJ1-w-35" value="Extends" style="endArrow=block;endSize=16;endFill=0;html=1;rounded=0;" edge="1" parent="1" source="L1TldIx-KPI5O_lMJ1-w-28" target="L1TldIx-KPI5O_lMJ1-w-1">
          <mxGeometry width="160" relative="1" as="geometry">
            <mxPoint x="300" y="340" as="sourcePoint" />
            <mxPoint x="460" y="340" as="targetPoint" />
          </mxGeometry>
        </mxCell>
      </root>
    </mxGraphModel>
  </diagram>
</mxfile>
